<?xml version="1.0" encoding="UTF-8" standalone="no"?>
<svg width="512" height="512" viewBox="0 0 512 512" fill="none" xmlns="http://www.w3.org/2000/svg">
  <rect width="512" height="512" rx="128" fill="#2563EB"/>
  <path d="M256 128C185.307 128 128 185.307 128 256C128 326.693 185.307 384 256 384C326.693 384 384 326.693 384 256C384 185.307 326.693 128 256 128ZM256 356.571C200.467 356.571 155.429 311.533 155.429 256C155.429 200.467 200.467 155.429 256 155.429C311.533 155.429 356.571 200.467 356.571 256C356.571 311.533 311.533 356.571 256 356.571Z" fill="white"/>
  <path d="M256 192C221.436 192 193.524 219.913 193.524 254.476C193.524 289.039 221.436 316.952 256 316.952C290.564 316.952 318.476 289.039 318.476 254.476C318.476 219.913 290.564 192 256 192ZM256 292.571C234.845 292.571 217.905 275.631 217.905 254.476C217.905 233.321 234.845 216.381 256 216.381C277.155 216.381 294.095 233.321 294.095 254.476C294.095 275.631 277.155 292.571 256 292.571Z" fill="white"/>
  <path d="M256 240.762C247.467 240.762 240.762 247.467 240.762 256C240.762 264.533 247.467 271.238 256 271.238C264.533 271.238 271.238 264.533 271.238 256C271.238 247.467 264.533 240.762 256 240.762Z" fill="white"/>
</svg>