<?xml version="1.0" encoding="UTF-8" standalone="no"?>
<svg width="192" height="192" viewBox="0 0 192 192" fill="none" xmlns="http://www.w3.org/2000/svg">
  <rect width="192" height="192" rx="48" fill="#2563EB"/>
  <path d="M96 48C69.49 48 48 69.49 48 96C48 122.51 69.49 144 96 144C122.51 144 144 122.51 144 96C144 69.49 122.51 48 96 48ZM96 133.714C75.175 133.714 58.286 116.825 58.286 96C58.286 75.175 75.175 58.286 96 58.286C116.825 58.286 133.714 75.175 133.714 96C133.714 116.825 116.825 133.714 96 133.714Z" fill="white"/>
  <path d="M96 72C83.0388 72 72.5714 82.4674 72.5714 95.4286C72.5714 108.39 83.0388 118.857 96 118.857C108.961 118.857 119.429 108.39 119.429 95.4286C119.429 82.4674 108.961 72 96 72ZM96 109.714C88.067 109.714 81.7143 103.362 81.7143 95.4286C81.7143 87.4956 88.067 81.1429 96 81.1429C103.933 81.1429 110.286 87.4956 110.286 95.4286C110.286 103.362 103.933 109.714 96 109.714Z" fill="white"/>
  <path d="M96.0001 90.2858C92.8001 90.2858 90.2858 92.8001 90.2858 96.0001C90.2858 99.2001 92.8001 101.714 96.0001 101.714C99.2001 101.714 101.714 99.2001 101.714 96.0001C101.714 92.8001 99.2001 90.2858 96.0001 90.2858Z" fill="white"/>
</svg>